<svg width="100" height="100" viewBox="0 0 100 100" fill="none" xmlns="http://www.w3.org/2000/svg">
<path d="M76.3672 45.693H23.6328C21.3039 45.6998 19.0723 46.628 17.4255 48.2748C15.7787 49.9216 14.8506 52.1532 14.8438 54.4821V86.1227C14.8506 88.4516 15.7787 90.6832 17.4255 92.33C19.0723 93.9767 21.3039 94.9049 23.6328 94.9117H76.3672C78.6961 94.9049 80.9277 93.9767 82.5745 92.33C84.2213 90.6832 85.1494 88.4516 85.1562 86.1227V54.4821C85.1494 52.1532 84.2213 49.9216 82.5745 48.2748C80.9277 46.628 78.6961 45.6998 76.3672 45.693ZM35.9615 72.1445C36.1819 72.2711 36.3752 72.4399 36.5302 72.6413C36.6853 72.8427 36.7991 73.0727 36.8652 73.3181C36.9312 73.5636 36.9482 73.8196 36.9151 74.0717C36.8821 74.3237 36.7997 74.5667 36.6726 74.7868C36.5455 75.0069 36.3762 75.1998 36.1744 75.3544C35.9727 75.509 35.7424 75.6223 35.4969 75.6878C35.2513 75.7533 34.9952 75.7697 34.7432 75.7361C34.4913 75.7025 34.2485 75.6195 34.0286 75.4919L30.8392 73.6503V77.3338C30.8392 77.8464 30.6355 78.3381 30.273 78.7006C29.9106 79.0631 29.4189 79.2667 28.9063 79.2667C28.3936 79.2667 27.902 79.0631 27.5395 78.7006C27.177 78.3381 26.9734 77.8464 26.9734 77.3338V73.6503L23.7839 75.4919C23.3401 75.7468 22.8133 75.8153 22.319 75.6823C21.8248 75.5493 21.4035 75.2257 21.1475 74.7824C20.8916 74.3392 20.8219 73.8125 20.9538 73.318C21.0857 72.8235 21.4084 72.4014 21.851 72.1445L25.0413 70.3025L21.851 68.4606C21.4084 68.2037 21.0857 67.7817 20.9538 67.2871C20.8219 66.7926 20.8916 66.2659 21.1475 65.8227C21.4035 65.3794 21.8248 65.0558 22.319 64.9228C22.8133 64.7898 23.3401 64.8583 23.7839 65.1132L26.9734 66.9547V63.2713C26.9734 62.7587 27.177 62.267 27.5395 61.9045C27.902 61.542 28.3936 61.3384 28.9063 61.3384C29.4189 61.3384 29.9106 61.542 30.273 61.9045C30.6355 62.267 30.8392 62.7587 30.8392 63.2713V66.9547L34.0286 65.1132C34.4724 64.8583 34.9993 64.7898 35.4935 64.9228C35.9878 65.0558 36.4091 65.3794 36.665 65.8227C36.9209 66.2659 36.9906 66.7926 36.8587 67.2871C36.7269 67.7817 36.4042 68.2037 35.9615 68.4606L32.7712 70.3025L35.9615 72.1445ZM57.0553 72.1445C57.2757 72.2711 57.4689 72.4399 57.624 72.6413C57.7791 72.8427 57.8929 73.0727 57.9589 73.3181C58.025 73.5636 58.0419 73.8196 58.0089 74.0717C57.9758 74.3237 57.8934 74.5667 57.7663 74.7868C57.6392 75.0069 57.4699 75.1998 57.2682 75.3544C57.0665 75.509 56.8362 75.6223 56.5906 75.6878C56.345 75.7533 56.0889 75.7697 55.837 75.7361C55.585 75.7025 55.3422 75.6195 55.1224 75.4919L51.9329 73.6503V77.3338C51.9329 77.8464 51.7293 78.3381 51.3668 78.7006C51.0043 79.0631 50.5127 79.2667 50 79.2667C49.4874 79.2667 48.9957 79.0631 48.6332 78.7006C48.2708 78.3381 48.0671 77.8464 48.0671 77.3338V73.6503L44.8777 75.4919C44.4338 75.7468 43.907 75.8153 43.4128 75.6823C42.9185 75.5493 42.4972 75.2257 42.2413 74.7824C41.9853 74.3392 41.9157 73.8125 42.0476 73.318C42.1794 72.8235 42.5021 72.4014 42.9448 72.1445L46.1351 70.3025L42.9448 68.4606C42.5021 68.2037 42.1794 67.7817 42.0476 67.2871C41.9157 66.7926 41.9853 66.2659 42.2413 65.8227C42.4972 65.3794 42.9185 65.0558 43.4128 64.9228C43.907 64.7898 44.4338 64.8583 44.8777 65.1132L48.0671 66.9547V63.2713C48.0671 62.7587 48.2708 62.267 48.6332 61.9045C48.9957 61.542 49.4874 61.3384 50 61.3384C50.5127 61.3384 51.0043 61.542 51.3668 61.9045C51.7293 62.267 51.9329 62.7587 51.9329 63.2713V66.9547L55.1224 65.1132C55.5662 64.8583 56.093 64.7898 56.5873 64.9228C57.0815 65.0558 57.5028 65.3794 57.7588 65.8227C58.0147 66.2659 58.0844 66.7926 57.9525 67.2871C57.8206 67.7817 57.4979 68.2037 57.0553 68.4606L53.865 70.3025L57.0553 72.1445ZM78.149 72.1445C78.3694 72.2711 78.5627 72.4399 78.7177 72.6413C78.8728 72.8427 78.9866 73.0727 79.0527 73.3181C79.1187 73.5636 79.1357 73.8196 79.1026 74.0717C79.0696 74.3237 78.9872 74.5667 78.8601 74.7868C78.733 75.0069 78.5637 75.1998 78.3619 75.3544C78.1602 75.509 77.9299 75.6223 77.6844 75.6878C77.4388 75.7533 77.1827 75.7697 76.9307 75.7361C76.6788 75.7025 76.436 75.6195 76.2161 75.4919L73.0267 73.6503V77.3338C73.0267 77.8464 72.823 78.3381 72.4605 78.7006C72.0981 79.0631 71.6064 79.2667 71.0938 79.2667C70.5811 79.2667 70.0895 79.0631 69.727 78.7006C69.3645 78.3381 69.1609 77.8464 69.1609 77.3338V73.6503L65.9714 75.4919C65.5276 75.7468 65.0008 75.8153 64.5065 75.6823C64.0123 75.5493 63.591 75.2257 63.335 74.7824C63.0791 74.3392 63.0094 73.8125 63.1413 73.318C63.2732 72.8235 63.5959 72.4014 64.0385 72.1445L67.2288 70.3025L64.0385 68.4606C63.5959 68.2037 63.2732 67.7817 63.1413 67.2871C63.0094 66.7926 63.0791 66.2659 63.335 65.8227C63.591 65.3794 64.0123 65.0558 64.5065 64.9228C65.0008 64.7898 65.5276 64.8583 65.9714 65.1132L69.1609 66.9547V63.2713C69.1609 62.7587 69.3645 62.267 69.727 61.9045C70.0895 61.542 70.5811 61.3384 71.0938 61.3384C71.6064 61.3384 72.0981 61.542 72.4605 61.9045C72.823 62.267 73.0267 62.7587 73.0267 63.2713V66.9547L76.2161 65.1132C76.6599 64.8583 77.1868 64.7898 77.681 64.9228C78.1753 65.0558 78.5966 65.3794 78.8525 65.8227C79.1084 66.2659 79.1781 66.7926 79.0462 67.2871C78.9144 67.7817 78.5917 68.2037 78.149 68.4606L74.9587 70.3025L78.149 72.1445Z" fill="white"/>
<path d="M30.8395 28.115C30.8395 23.0333 32.8582 18.1596 36.4515 14.5663C40.0449 10.9729 44.9185 8.9542 50.0003 8.9542C55.0821 8.9542 59.9557 10.9729 63.5491 14.5663C67.1424 18.1596 69.1611 23.0333 69.1611 28.115V41.8256H73.027V28.115C73.027 22.008 70.6009 16.1511 66.2826 11.8327C61.9643 7.5144 56.1073 5.08838 50.0003 5.08838C43.8932 5.08838 38.0363 7.5144 33.718 11.8327C29.3996 16.1511 26.9736 22.008 26.9736 28.115V41.8256H30.8395V28.115Z" fill="white"/>
</svg>
