<svg width="177" height="177" viewBox="0 0 177 177" fill="none" xmlns="http://www.w3.org/2000/svg">
<path d="M87.6359 1.48389C88.0216 0.821541 88.9784 0.821544 89.3642 1.48389L101.052 21.5544C101.355 22.0739 102.044 22.211 102.522 21.8468L121.001 7.77691C121.611 7.31258 122.495 7.67876 122.598 8.4383L125.716 31.4539C125.796 32.0496 126.381 32.4399 126.962 32.2865L149.419 26.3593C150.16 26.1637 150.836 26.8403 150.641 27.5814L144.713 50.0381C144.56 50.6193 144.95 51.2036 145.546 51.2843L168.562 54.402C169.321 54.5049 169.687 55.3889 169.223 55.9987L155.153 74.4778C154.789 74.9561 154.926 75.6452 155.446 75.9477L175.516 87.6359C176.178 88.0216 176.178 88.9784 175.516 89.3642L155.446 101.052C154.926 101.355 154.789 102.044 155.153 102.522L169.223 121.001C169.687 121.611 169.321 122.495 168.562 122.598L145.546 125.716C144.95 125.796 144.56 126.381 144.713 126.962L150.641 149.419C150.836 150.16 150.16 150.836 149.419 150.641L126.962 144.713C126.381 144.56 125.796 144.95 125.716 145.546L122.598 168.562C122.495 169.321 121.611 169.687 121.001 169.223L102.522 155.153C102.044 154.789 101.355 154.926 101.052 155.446L89.3641 175.516C88.9784 176.178 88.0216 176.178 87.6358 175.516L75.9477 155.446C75.6452 154.926 74.9561 154.789 74.4778 155.153L55.9987 169.223C55.3889 169.687 54.5049 169.321 54.402 168.562L51.2843 145.546C51.2036 144.95 50.6193 144.56 50.0381 144.713L27.5814 150.641C26.8403 150.836 26.1637 150.16 26.3593 149.419L32.2865 126.962C32.4399 126.381 32.0496 125.796 31.4539 125.716L8.43829 122.598C7.67876 122.495 7.31258 121.611 7.77691 121.001L21.8468 102.522C22.211 102.044 22.0739 101.355 21.5544 101.052L1.48389 89.3641C0.821541 88.9784 0.821544 88.0216 1.48389 87.6358L21.5544 75.9477C22.0739 75.6452 22.211 74.9561 21.8468 74.4778L7.77691 55.9987C7.31258 55.3889 7.67876 54.5049 8.4383 54.402L31.4539 51.2843C32.0496 51.2036 32.4399 50.6193 32.2865 50.0381L26.3593 27.5814C26.1637 26.8403 26.8403 26.1637 27.5814 26.3593L50.0381 32.2865C50.6193 32.4399 51.2036 32.0496 51.2843 31.4539L54.402 8.43829C54.5049 7.67876 55.3889 7.31258 55.9987 7.77691L74.4778 21.8468C74.9561 22.211 75.6452 22.0739 75.9477 21.5544L87.6359 1.48389Z" fill="#94D53D"/>
<path d="M73.3006 83.648H69.227V75.9873H73.2736V71.9127H76.8883V75.9329H80.9612V83.6222H76.8883V83.6482H73.3006V83.648ZM59.4574 119.603C59.4594 119.792 59.4625 119.934 59.4646 120.026C59.4656 120.083 59.4555 120.136 59.4524 120.192C59.5795 123.326 62.1622 125.836 65.3253 125.836H117.57V120.081C117.57 118.932 118.502 117.999 119.652 117.999C120.801 117.999 121.734 118.932 121.734 120.081V127.918C121.734 129.068 120.801 130 119.652 130H65.0111C64.9029 130 64.7986 129.985 64.6934 129.968C59.4467 129.64 55.2755 125.28 55.2755 119.951C55.2755 119.828 55.2901 119.71 55.2943 119.59C55.2298 113.408 55.2943 66.3816 55.3015 61.2649C55.2934 61.1922 55.2797 61.1227 55.2797 61.0484C55.2797 55.5071 59.7873 51 65.3287 51H68.6556H119.142H119.65C120.8 51 121.732 51.9327 121.732 53.082V111.928C121.732 113.077 120.8 114.01 119.65 114.01C119.638 114.01 119.628 114.006 119.615 114.006C119.463 114.042 119.302 114.066 119.139 114.066H65.3253C62.1981 114.066 59.6394 116.521 59.4574 119.603ZM96.8739 71.9127H113.114V75.5009H109.041V79.5754H104.995V83.6491H100.92V87.6966H96.872V96.276H117.648V91.7682H101.38V88.1806H105.454V84.1071H109.5V80.0325H113.575V75.9873H117.647V67.3802H96.8739V71.9127ZM87.6898 84.1071H97.367V79.5745H87.6898V84.1071ZM64.7219 96.2737H69.2282V88.1804H73.3008V88.1546H80.9614V96.276H85.4941V75.5009H81.42V71.4004H77.3463V67.3802H72.8397V71.4537H68.766V75.5282H64.7183V96.2737H64.7219Z" fill="white"/>
</svg>
