<svg width="177" height="177" viewBox="0 0 177 177" fill="none" xmlns="http://www.w3.org/2000/svg">
<path d="M87.6359 1.48389C88.0216 0.821541 88.9784 0.821544 89.3642 1.48389L101.052 21.5544C101.355 22.0739 102.044 22.211 102.522 21.8468L121.001 7.77691C121.611 7.31258 122.495 7.67876 122.598 8.4383L125.716 31.4539C125.796 32.0496 126.381 32.4399 126.962 32.2865L149.419 26.3593C150.16 26.1637 150.836 26.8403 150.641 27.5814L144.713 50.0381C144.56 50.6193 144.95 51.2036 145.546 51.2843L168.562 54.402C169.321 54.5049 169.687 55.3889 169.223 55.9987L155.153 74.4778C154.789 74.9561 154.926 75.6452 155.446 75.9477L175.516 87.6359C176.178 88.0216 176.178 88.9784 175.516 89.3642L155.446 101.052C154.926 101.355 154.789 102.044 155.153 102.522L169.223 121.001C169.687 121.611 169.321 122.495 168.562 122.598L145.546 125.716C144.95 125.796 144.56 126.381 144.713 126.962L150.641 149.419C150.836 150.16 150.16 150.836 149.419 150.641L126.962 144.713C126.381 144.56 125.796 144.95 125.716 145.546L122.598 168.562C122.495 169.321 121.611 169.687 121.001 169.223L102.522 155.153C102.044 154.789 101.355 154.926 101.052 155.446L89.3641 175.516C88.9784 176.178 88.0216 176.178 87.6358 175.516L75.9477 155.446C75.6452 154.926 74.9561 154.789 74.4778 155.153L55.9987 169.223C55.3889 169.687 54.5049 169.321 54.402 168.562L51.2843 145.546C51.2036 144.95 50.6193 144.56 50.0381 144.713L27.5814 150.641C26.8403 150.836 26.1637 150.16 26.3593 149.419L32.2865 126.962C32.4399 126.381 32.0496 125.796 31.4539 125.716L8.43829 122.598C7.67876 122.495 7.31258 121.611 7.77691 121.001L21.8468 102.522C22.211 102.044 22.0739 101.355 21.5544 101.052L1.48389 89.3641C0.821541 88.9784 0.821544 88.0216 1.48389 87.6358L21.5544 75.9477C22.0739 75.6452 22.211 74.9561 21.8468 74.4778L7.77691 55.9987C7.31258 55.3889 7.67876 54.5049 8.4383 54.402L31.4539 51.2843C32.0496 51.2036 32.4399 50.6193 32.2865 50.0381L26.3593 27.5814C26.1637 26.8403 26.8403 26.1637 27.5814 26.3593L50.0381 32.2865C50.6193 32.4399 51.2036 32.0496 51.2843 31.4539L54.402 8.43829C54.5049 7.67876 55.3889 7.31258 55.9987 7.77691L74.4778 21.8468C74.9561 22.211 75.6452 22.0739 75.9477 21.5544L87.6359 1.48389Z" fill="#94D53D"/>
<path d="M122.865 49.3701L98.3945 58.5591L107.177 64.0957C91.4883 83.8516 68.7939 96.0205 49.6191 100.652L55.0512 110.547C76.5967 103.524 99.4072 90.8574 114.1 68.4785L120.79 72.6953L122.865 49.3701ZM124.144 68.7441L123.347 77.8418L114.83 72.4629C114.531 72.9111 114.216 73.3428 113.9 73.791V126.85H126.85V68.7441H124.144ZM99.1416 89.9941C97.0332 91.8203 94.8584 93.5469 92.6504 95.1738V126.85H105.6V89.9941H99.1416ZM78.6055 103.939C76.2148 105.201 73.8242 106.363 71.4004 107.459V126.85H84.3496V103.939H78.6055ZM50.1504 111.244V126.85H63.0996V111.244H62.1566C59.6963 112.157 57.2376 113.004 54.7938 113.784L53.6218 114.149L52.028 111.244H50.1504Z" fill="white"/>
</svg>
