<svg width="177" height="177" viewBox="0 0 177 177" fill="none" xmlns="http://www.w3.org/2000/svg">
<path d="M87.6359 1.48389C88.0216 0.821541 88.9784 0.821544 89.3641 1.48389L101.052 21.5544C101.355 22.0739 102.044 22.211 102.522 21.8468L121.001 7.77691C121.611 7.31258 122.495 7.67876 122.598 8.4383L125.716 31.4539C125.796 32.0496 126.381 32.4399 126.962 32.2865L149.419 26.3593C150.16 26.1637 150.836 26.8403 150.641 27.5814L144.713 50.0381C144.56 50.6193 144.95 51.2036 145.546 51.2843L168.562 54.402C169.321 54.5049 169.687 55.3889 169.223 55.9987L155.153 74.4778C154.789 74.9561 154.926 75.6452 155.446 75.9477L175.516 87.6359C176.178 88.0216 176.178 88.9784 175.516 89.3641L155.446 101.052C154.926 101.355 154.789 102.044 155.153 102.522L169.223 121.001C169.687 121.611 169.321 122.495 168.562 122.598L145.546 125.716C144.95 125.796 144.56 126.381 144.713 126.962L150.641 149.419C150.836 150.16 150.16 150.836 149.419 150.641L126.962 144.713C126.381 144.56 125.796 144.95 125.716 145.546L122.598 168.562C122.495 169.321 121.611 169.687 121.001 169.223L102.522 155.153C102.044 154.789 101.355 154.926 101.052 155.446L89.3641 175.516C88.9784 176.178 88.0216 176.178 87.6359 175.516L75.9477 155.446C75.6452 154.926 74.9561 154.789 74.4778 155.153L55.9987 169.223C55.3889 169.687 54.5049 169.321 54.402 168.562L51.2843 145.546C51.2036 144.95 50.6193 144.56 50.0381 144.713L27.5814 150.641C26.8403 150.836 26.1637 150.16 26.3593 149.419L32.2865 126.962C32.4399 126.381 32.0496 125.796 31.4539 125.716L8.43829 122.598C7.67876 122.495 7.31258 121.611 7.77691 121.001L21.8468 102.522C22.211 102.044 22.0739 101.355 21.5544 101.052L1.48389 89.3641C0.821541 88.9784 0.821544 88.0216 1.48389 87.6359L21.5544 75.9477C22.0739 75.6452 22.211 74.9561 21.8468 74.4778L7.77691 55.9987C7.31258 55.3889 7.67876 54.5049 8.4383 54.402L31.4539 51.2843C32.0496 51.2036 32.4399 50.6193 32.2865 50.0381L26.3593 27.5814C26.1637 26.8403 26.8403 26.1637 27.5814 26.3593L50.0381 32.2865C50.6193 32.4399 51.2036 32.0496 51.2843 31.4539L54.402 8.43829C54.5049 7.67876 55.3889 7.31258 55.9987 7.77691L74.4778 21.8468C74.9561 22.211 75.6452 22.0739 75.9477 21.5544L87.6359 1.48389Z" fill="#94D53D"/>
<path d="M114.438 49.5938H62.5625C55.3999 49.5938 49.5938 55.3999 49.5938 62.5625V114.438C49.5938 121.6 55.3999 127.406 62.5625 127.406H114.438C121.6 127.406 127.406 121.6 127.406 114.438V62.5625C127.406 55.3999 121.6 49.5938 114.438 49.5938ZM70.3438 80.7188H63.7427V86.5547H70.3438V90.4453H63.7427V100.172H59.9688V76.8281H70.3438V80.7188ZM86.5223 100.172H82.6044L79.3998 90.4453H77.9408V100.172H74.2344V76.8281H80.7188C84.2955 76.8281 87.2031 79.8823 87.2031 83.6367C87.2031 86.486 85.5263 88.9332 83.1556 89.946L86.5223 100.172ZM101.469 80.7188H94.8677V86.5547H101.469V90.4453H94.8677V96.2812H101.469V100.172H91.0938V76.8281H101.469V80.7188ZM117.031 80.7188H110.43V86.5547H117.031V90.4453H110.43V96.2812H117.031V100.172H106.656V76.8281H117.031V80.7188Z" fill="#fff"/>
<path d="M80.7187 80.7188H77.9395V86.5547H80.7187C82.2517 86.5547 83.498 85.2448 83.498 83.6367C83.498 82.0286 82.2517 80.7188 80.7187 80.7188Z" fill="#fff"/>
</svg>
