<svg width="177" height="177" viewBox="0 0 177 177" fill="none" xmlns="http://www.w3.org/2000/svg">
<path d="M87.6359 1.48389C88.0216 0.821541 88.9784 0.821544 89.3642 1.48389L101.052 21.5544C101.355 22.0739 102.044 22.211 102.522 21.8468L121.001 7.77691C121.611 7.31258 122.495 7.67876 122.598 8.4383L125.716 31.4539C125.796 32.0496 126.381 32.4399 126.962 32.2865L149.419 26.3593C150.16 26.1637 150.836 26.8403 150.641 27.5814L144.713 50.0381C144.56 50.6193 144.95 51.2036 145.546 51.2843L168.562 54.402C169.321 54.5049 169.687 55.3889 169.223 55.9987L155.153 74.4778C154.789 74.9561 154.926 75.6452 155.446 75.9477L175.516 87.6359C176.178 88.0216 176.178 88.9784 175.516 89.3642L155.446 101.052C154.926 101.355 154.789 102.044 155.153 102.522L169.223 121.001C169.687 121.611 169.321 122.495 168.562 122.598L145.546 125.716C144.95 125.796 144.56 126.381 144.713 126.962L150.641 149.419C150.836 150.16 150.16 150.836 149.419 150.641L126.962 144.713C126.381 144.56 125.796 144.95 125.716 145.546L122.598 168.562C122.495 169.321 121.611 169.687 121.001 169.223L102.522 155.153C102.044 154.789 101.355 154.926 101.052 155.446L89.3641 175.516C88.9784 176.178 88.0216 176.178 87.6358 175.516L75.9477 155.446C75.6452 154.926 74.9561 154.789 74.4778 155.153L55.9987 169.223C55.3889 169.687 54.5049 169.321 54.402 168.562L51.2843 145.546C51.2036 144.95 50.6193 144.56 50.0381 144.713L27.5814 150.641C26.8403 150.836 26.1637 150.16 26.3593 149.419L32.2865 126.962C32.4399 126.381 32.0496 125.796 31.4539 125.716L8.43829 122.598C7.67876 122.495 7.31258 121.611 7.77691 121.001L21.8468 102.522C22.211 102.044 22.0739 101.355 21.5544 101.052L1.48389 89.3641C0.821541 88.9784 0.821544 88.0216 1.48389 87.6358L21.5544 75.9477C22.0739 75.6452 22.211 74.9561 21.8468 74.4778L7.77691 55.9987C7.31258 55.3889 7.67876 54.5049 8.4383 54.402L31.4539 51.2843C32.0496 51.2036 32.4399 50.6193 32.2865 50.0381L26.3593 27.5814C26.1637 26.8403 26.8403 26.1637 27.5814 26.3593L50.0381 32.2865C50.6193 32.4399 51.2036 32.0496 51.2843 31.4539L54.402 8.43829C54.5049 7.67876 55.3889 7.31258 55.9987 7.77691L74.4778 21.8468C74.9561 22.211 75.6452 22.0739 75.9477 21.5544L87.6359 1.48389Z" fill="#94D53D"/>
<path d="M115.062 91.1562C115.062 92.6198 113.87 93.8125 112.406 93.8125C110.943 93.8125 109.75 92.6198 109.75 91.1562C109.75 89.6927 110.943 88.5 112.406 88.5C113.87 88.5 115.062 89.6927 115.062 91.1562ZM99.125 91.1562C97.6614 91.1562 96.4688 92.3489 96.4688 93.8125C96.4688 95.2761 97.6614 96.4688 99.125 96.4688C100.589 96.4688 101.781 95.2761 101.781 93.8125C101.781 92.3489 100.589 91.1562 99.125 91.1562ZM69.9062 77.875H64.5938V83.1875H59.2812V88.5H64.5938V93.8125H69.9062V88.5H75.2188V83.1875H69.9062V77.875ZM99.125 77.875C97.6614 77.875 96.4688 79.0677 96.4688 80.5312C96.4688 81.9948 97.6614 83.1875 99.125 83.1875C100.589 83.1875 101.781 81.9948 101.781 80.5312C101.781 79.0677 100.589 77.875 99.125 77.875ZM112.406 75.2188C110.943 75.2188 109.75 76.4114 109.75 77.875C109.75 79.3386 110.943 80.5312 112.406 80.5312C113.87 80.5312 115.062 79.3386 115.062 77.875C115.062 76.4114 113.87 75.2188 112.406 75.2188ZM131 99.125C131 109.378 122.659 117.719 112.406 117.719C105.197 117.719 98.6734 113.519 95.6214 107.094H81.3759C78.3266 113.519 71.8028 117.719 64.5938 117.719C54.3406 117.719 46 109.378 46 99.125C46 97.7411 46.1673 96.3147 46.4994 94.9016L52.1519 70.3073C54.2981 63.7119 60.365 59.2812 67.25 59.2812C71.8002 59.2812 76.0369 61.2017 79.0677 64.5938H97.9323C100.963 61.2017 105.2 59.2812 109.75 59.2812C116.635 59.2812 122.702 63.7119 124.848 70.3073L130.498 94.8909C130.833 96.3147 131 97.7411 131 99.125ZM77.875 83.1875C77.875 81.7213 76.685 80.5312 75.2188 80.5312H72.5625V77.875C72.5625 76.4088 71.3725 75.2188 69.9062 75.2188H64.5938C63.1275 75.2188 61.9375 76.4088 61.9375 77.875V80.5312H59.2812C57.815 80.5312 56.625 81.7213 56.625 83.1875V88.5C56.625 89.9662 57.815 91.1562 59.2812 91.1562H61.9375V93.8125C61.9375 95.2788 63.1275 96.4688 64.5938 96.4688H69.9062C71.3725 96.4688 72.5625 95.2788 72.5625 93.8125V91.1562H75.2188C76.685 91.1562 77.875 89.9662 77.875 88.5V83.1875ZM104.438 93.8125C104.438 90.8773 102.06 88.5 99.125 88.5C96.1898 88.5 93.8125 90.8773 93.8125 93.8125C93.8125 96.7477 96.1898 99.125 99.125 99.125C102.06 99.125 104.438 96.7477 104.438 93.8125ZM104.438 80.5312C104.438 77.5961 102.06 75.2188 99.125 75.2188C96.1898 75.2188 93.8125 77.5961 93.8125 80.5312C93.8125 83.4664 96.1898 85.8438 99.125 85.8438C102.06 85.8438 104.438 83.4664 104.438 80.5312ZM117.719 91.1562C117.719 88.2211 115.341 85.8438 112.406 85.8438C109.471 85.8438 107.094 88.2211 107.094 91.1562C107.094 94.0914 109.471 96.4688 112.406 96.4688C115.341 96.4688 117.719 94.0914 117.719 91.1562ZM117.719 77.875C117.719 74.9398 115.341 72.5625 112.406 72.5625C109.471 72.5625 107.094 74.9398 107.094 77.875C107.094 80.8102 109.471 83.1875 112.406 83.1875C115.341 83.1875 117.719 80.8102 117.719 77.875Z" fill="white"/>
</svg>
