<svg width="95" height="95" viewBox="0 0 95 95" fill="none" xmlns="http://www.w3.org/2000/svg">
<path d="M23.1006 60.5915C23.8055 61.2939 24.7614 61.6885 25.7582 61.6885C26.7549 61.6885 27.7109 61.2939 28.4158 60.5915L47.0227 42.0443L65.6296 60.5915C66.3386 61.274 67.2881 61.6517 68.2737 61.6431C69.2593 61.6346 70.2021 61.2405 70.899 60.5458C71.596 59.8511 71.9913 58.9114 71.9999 57.9289C72.0084 56.9465 71.6295 56 70.9448 55.2933L49.6803 34.097C48.9754 33.3946 48.0194 33 47.0227 33C46.0259 33 45.07 33.3946 44.3651 34.097L23.1006 55.2933C22.3959 55.996 22 56.9489 22 57.9424C22 58.936 22.3959 59.8888 23.1006 60.5915V60.5915Z" fill="white"/>
</svg>
