<svg width="63" height="63" viewBox="0 0 63 63" xmlns="http://www.w3.org/2000/svg">
<path d="M13.125 13.125H18.375V18.375H13.125V13.125ZM23.625 23.625H18.375V18.375H23.625V23.625ZM28.875 28.875H23.625V23.625H28.875V28.875ZM34.125 28.875H28.875V34.125H23.625V39.375H18.375V44.625H13.125V49.875H18.375V44.625H23.625V39.375H28.875V34.125H34.125V39.375H39.375V44.625H44.625V49.875H49.875V44.625H44.625V39.375H39.375V34.125H34.125V28.875ZM39.375 23.625V28.875H34.125V23.625H39.375ZM44.625 18.375V23.625H39.375V18.375H44.625ZM44.625 18.375V13.125H49.875V18.375H44.625Z" fill="#94D53D"/>
</svg>
