<svg width="440" height="440" viewBox="0 0 440 440" fill="none" xmlns="http://www.w3.org/2000/svg">
<path d="M416.525 45.04H23.4755C10.5134 45.04 0 55.5534 0 68.5155V316.818C0 329.78 10.5134 340.293 23.4755 340.293H179.066L158.112 390.71H148.501C140.151 390.71 133.377 397.485 133.377 405.834C133.377 414.184 140.151 420.96 148.501 420.96H291.5C299.85 420.96 306.626 414.184 306.626 405.834C306.626 397.485 299.85 390.71 291.5 390.71H281.889L260.935 340.293H416.525C429.487 340.293 440 329.78 440 316.818V68.5155C440 55.5534 429.487 45.04 416.525 45.04ZM340.599 325.103C334.526 325.103 329.599 320.176 329.599 314.103C329.599 308.029 334.525 303.102 340.599 303.102C346.671 303.102 351.6 308.028 351.6 314.103C351.599 320.176 346.671 325.103 340.599 325.103ZM376.349 325.103C370.275 325.103 365.349 320.176 365.349 314.103C365.349 308.029 370.275 303.102 376.349 303.102C382.42 303.102 387.349 308.028 387.349 314.103C387.349 320.176 382.421 325.103 376.349 325.103ZM398.106 280.831C398.106 286.503 393.508 291.101 387.836 291.101H52.1629C46.4916 291.101 41.893 286.503 41.893 280.831V102.146C41.893 96.4734 46.4907 91.8766 52.1629 91.8766H387.835C393.507 91.8766 398.105 96.4734 398.105 102.146V280.831H398.106Z" fill="#94D53D"/>
<path d="M165.114 180.568H162.036V129.622C162.036 126.909 159.844 124.716 157.137 124.716H137.486C135.796 124.716 134.221 125.591 133.332 127.03L100.332 180.146C99.2581 181.858 98.6992 183.834 98.6992 185.854V192.37C98.6992 195.085 100.891 197.276 103.598 197.276H140.922V209.443C140.922 215.273 145.649 219.999 151.478 219.999C157.308 219.999 162.035 215.273 162.035 209.443V197.276H165.114C169.726 197.276 173.463 193.538 173.463 188.919C173.464 184.306 169.727 180.568 165.114 180.568ZM140.923 159.457V180.568H119.525V180.275L132.273 159.457C135.496 153.448 137.987 147.876 141.067 141.724H141.654C141.209 147.876 140.923 153.741 140.923 159.457Z" fill="white"/>
<path d="M217.78 123.106C193.144 123.106 181.414 144.947 181.414 172.505C181.573 199.475 192.414 221.611 217.036 221.611C241.37 221.611 253.244 201.38 253.244 171.917C253.243 145.829 243.274 123.106 217.78 123.106ZM217.622 204.753C208.985 204.753 203.701 194.347 203.843 172.504C203.701 150.368 209.272 139.963 217.478 139.963C226.416 139.963 230.97 151.107 230.97 172.21C230.97 193.91 226.272 204.753 217.622 204.753Z" fill="#94D53D"/>
<path d="M327.908 180.568H324.83V129.622C324.83 126.909 322.637 124.716 319.931 124.716H300.28C298.59 124.716 297.015 125.591 296.127 127.03L263.127 180.146C262.053 181.858 261.494 183.834 261.494 185.854V192.37C261.494 195.085 263.686 197.276 266.393 197.276H303.717V209.443C303.717 215.273 308.444 219.999 314.273 219.999C320.103 219.999 324.83 215.273 324.83 209.443V197.276H327.908C332.521 197.276 336.26 193.538 336.26 188.919C336.259 184.306 332.521 180.568 327.908 180.568ZM303.717 159.457V180.568H282.319V180.275L295.067 159.457C298.29 153.448 300.781 147.876 303.861 141.724H304.448C304.003 147.876 303.717 153.741 303.717 159.457Z" fill="white"/>
</svg>
