<svg width="51" height="43" viewBox="0 0 51 43" fill="none" xmlns="http://www.w3.org/2000/svg">
<path d="M34.245 25.0998C32.2705 25.0998 30.67 27.319 30.67 30.047C30.67 32.7805 32.2705 34.9998 34.245 34.9998C36.2195 34.9998 37.82 32.7805 37.82 30.047C37.8172 27.319 36.2195 25.0998 34.245 25.0998ZM46.6915 12.2215C47.1012 11.2178 47.1177 5.5143 44.9452 0.0500488C44.9452 0.0500488 39.965 0.597299 32.43 5.77005C30.8487 5.33005 28.173 5.11555 25.5027 5.11555C22.827 5.11555 20.154 5.33005 18.5727 5.77005C11.035 0.597299 6.05475 0.0500488 6.05475 0.0500488C3.885 5.5143 3.907 11.2178 4.31125 12.2215C1.75925 14.9935 0.199997 18.3238 0.199997 22.8668C0.199997 42.6283 16.5982 42.9445 20.7342 42.9445L25.5027 42.95L30.2657 42.9445C34.4072 42.9445 50.8 42.6283 50.8 22.8668C50.8 18.3238 49.2435 14.9935 46.6915 12.2215ZM25.577 40.5163H25.423C15.0527 40.5163 6.97325 39.2815 6.97325 29.2C6.97325 26.7828 7.82575 24.5443 9.8525 22.6853C13.2267 19.586 18.9412 21.225 25.423 21.225H25.577C32.0587 21.225 37.776 19.586 41.153 22.6853C43.1742 24.5443 44.0267 26.7828 44.0267 29.2C44.0267 39.2815 35.95 40.5163 25.577 40.5163ZM16.7577 25.0998C14.7832 25.0998 13.1827 27.319 13.1827 30.047C13.1827 32.7805 14.7832 34.9998 16.7577 34.9998C18.735 34.9998 20.3355 32.7805 20.3355 30.047C20.3355 27.319 18.735 25.0998 16.7577 25.0998Z" fill="white"/>
</svg>
