<svg width="176" height="64" viewBox="0 0 176 64" fill="none" xmlns="http://www.w3.org/2000/svg">
<path d="M99.7796 1.35226C94.7418 2.51432 92.24 5.15043 92.2153 9.32271C92.1869 14.1811 94.9273 16.412 103.715 18.687C107.986 19.792 109.438 21.7074 107.417 23.5678C105.124 25.6782 100.637 24.3095 100.072 21.3253C99.792 19.8361 99.8058 19.8404 95.0996 20.1004L90.9287 20.3301L91.1295 21.6344C91.4385 23.6451 93.1091 26.7492 94.5331 27.9597C98.7527 31.5448 110.373 31.1772 114.351 27.3299L115.515 26.2047L115.738 27.5126C116.556 32.3248 121.478 36.8459 127.14 37.9877L128.958 38.3553L127.884 39.7528C124.339 44.3635 124.239 53.7928 127.683 58.6902C132.954 66.1833 147.788 65.9659 152.668 58.3248L153.577 56.9027V63.6851H176.566V56.3928H162.836V35.1479H153.577L153.559 38.3979C153.543 41.0528 153.471 41.5345 153.16 41.0283C151.401 38.1625 147.975 35.7813 144.616 35.093L142.806 34.7211L144.643 33.3503C150.358 29.0849 153.917 21.3029 153.003 15.073C150.599 -1.29902 126.852 -1.55251 117.807 14.6953C117.223 15.7411 116.727 16.6309 116.702 16.672C116.677 16.7132 115.863 15.9816 114.892 15.0492C112.877 13.1115 111.259 12.4023 105.759 11.0495C100.641 9.78999 99.5935 8.90671 101.313 7.29976C102.95 5.77226 106.513 6.76171 107.315 8.96737C107.785 10.2594 107.7 10.2472 113.14 9.88965L116.287 9.68237L116.086 8.43726C115.157 2.66888 107.847 -0.508181 99.7775 1.35443L99.7796 1.35226ZM1.91637 15.8047V30.0722H11.176V18.6567H12.1171C13.6022 18.6567 14.5004 19.7415 17.3636 24.9985L20.0415 29.9118L25.1898 29.9992C28.0211 30.0476 30.336 30.0014 30.336 29.8974C30.336 28.2904 24.5658 19.0178 22.9644 18.0515L22.0865 17.5214L23.8582 16.6013C30.4262 13.1866 29.1825 3.4041 21.9847 1.87082C21.0764 1.67799 16.4764 1.53354 11.16 1.53354H1.91637V15.801V15.8047ZM142.11 4.02087C156.561 7.76632 155.238 27.9004 140.056 35.2512C124.588 42.7407 110.804 30.4455 118.156 15.7187C122.445 7.12643 133.417 1.76826 142.108 4.02304L142.11 4.02087ZM17.5564 7.96782C20.8087 9.60076 18.6509 12.6153 14.0444 12.8753L11.1767 13.0378V7.55976L13.9709 7.5641C15.5702 7.56626 17.1025 7.73887 17.5564 7.96637V7.96782ZM136.999 10.4905C134.456 11.1608 131.871 13.7124 131.868 15.5526C131.864 18.5592 134.284 19.6433 138.092 18.3418C140.422 17.5459 141.015 17.5459 141.447 18.344C142.177 19.701 139.783 21.0841 138.387 20.1113C137.685 19.6238 135.097 21.1614 135.071 22.0815C135.031 23.4667 138.561 23.991 140.723 22.9207C147.59 19.5227 145.64 12.2282 138.518 14.6679C135.671 15.6429 135.059 15.6855 135.059 14.9012C135.059 13.6705 136.996 12.7807 137.841 13.6192C138.186 13.9623 140.804 12.2383 140.804 11.667C140.804 10.8141 138.485 10.0948 136.996 10.4891L136.999 10.4905ZM126.692 17.3322C125.168 18.427 125.096 18.1425 127.89 22.0815C129.61 24.5045 130.271 25.7013 130.206 26.2682C130.092 27.2374 128.997 27.4953 128.228 26.7333C127.739 26.248 127.612 26.2863 126.455 27.2714C123.532 29.758 127.975 31.8922 131.276 29.589C134.903 27.0583 134.908 25.4882 131.303 20.2593C128.506 16.2026 128.377 16.1217 126.69 17.3343L126.692 17.3322ZM9.48655 34.8374C4.26255 35.6557 1.20437 38.689 1.16364 43.0924C1.12291 47.5853 4.056 50.1449 11.3215 51.9504C15.7745 53.0576 17.2407 53.9026 17.2407 55.3586C17.2407 59.4594 9.84873 59.0492 9.06691 54.9058C8.79273 53.4599 8.82764 53.4678 4.11273 53.7213L-0.0683594 53.9467L0.140368 55.2467C1.09382 61.2064 4.58328 63.6865 12.3578 63.9285C18.5229 64.1192 20.6422 63.5262 23.3338 60.8533L25.1767 59.0232L25.8538 59.931C29.7709 65.1917 43.0029 65.5455 47.3476 60.5037C48.6182 59.0311 50.0436 56.2563 50.1891 54.9787C50.2916 54.0788 50.2625 54.0629 46.3905 52.8965L42.4902 51.7208L41.9665 53.2851C40.1825 58.6173 33.4473 58.6779 31.968 53.3768C31.4647 51.5749 31.5258 47.2712 32.0822 45.4165C33.424 40.9337 39.0916 40.0135 41.3913 43.907C42.3505 45.532 42.0931 45.5017 46.4458 44.5245C50.5898 43.5943 50.4116 43.759 49.4669 41.7375C45.7193 33.7302 33.1215 31.8517 26.4415 38.3004L24.5782 40.1002L23.8051 38.7901C21.8785 35.5235 15.8015 33.8458 9.49091 34.8374H9.48655ZM97.7033 34.8453C94.1665 35.4549 90.6727 37.6649 88.6989 40.5386C88.1709 41.3085 88.1571 41.2457 88.1404 38.2369L88.1236 35.145H78.864V44.9745H69.6044V35.145H60.3447V63.6822H69.6044V52.2668H78.864V63.6822H88.1236V57.2306L89.1236 58.7278C93.2844 64.9634 106.152 66.0583 112.008 60.6734C118.785 54.4435 117.455 40.2714 109.727 36.3555C106.745 34.8439 101.511 34.1859 97.7018 34.8424L97.7033 34.8453ZM14.6785 40.6917C15.2124 40.9662 15.8385 41.7093 16.1782 42.4734L16.7615 43.7857L23 43.4874L22.7956 45.1045C22.5258 47.2437 22.4051 47.3246 20.6153 46.5388C19.7724 46.169 17.4138 45.4519 15.3709 44.942C10.5375 43.7395 9.936 43.4817 9.68873 42.5045C9.23055 40.6968 12.4276 39.5347 14.6815 40.6924L14.6785 40.6917ZM103.179 41.8126C107.908 43.1169 108.865 53.8947 104.48 56.4578C101.205 58.371 97.0611 56.7424 96.0894 53.1573C94.1585 46.034 97.736 40.3118 103.179 41.8126ZM141.783 41.8047C147.276 43.3199 147.164 55.5803 141.644 57.0573C137.205 58.2432 134.252 55.1802 134.274 49.4154C134.299 43.4253 137.156 40.5285 141.783 41.8061L141.783 41.8047Z" fill="white"/>
</svg>
