<svg width="32" height="30" viewBox="0 0 32 30" fill="none" xmlns="http://www.w3.org/2000/svg">
<path d="M32 0.781982L22.3665 2.62622C20.454 1.65073 18.2902 1.09999 16 1.09999C13.7098 1.09999 11.546 1.65073 9.63347 2.62622L0 0.781982L2.19648 12.4882C2.02941 13.3533 1.94089 14.246 1.94089 15.1591C1.94089 22.9113 8.2478 29.2182 16 29.2182C23.7523 29.2182 30.0593 22.9113 30.0593 15.1591C30.0593 14.246 29.9707 13.3533 29.8037 12.4882L32 0.781982ZM18.8014 23.5518C17.6916 23.5518 16.6919 23.0946 15.999 22.3349C15.3062 23.0952 14.3074 23.5581 13.1989 23.5581C11.1119 23.5581 9.41394 21.824 9.41394 19.7198H11.5181C11.5181 20.7018 12.2721 21.4539 13.1989 21.4539C14.1256 21.4539 14.8796 20.7392 14.8796 19.8126L14.8646 18.3124C13.629 17.8508 12.7468 16.6337 12.7468 15.2309H14.851C14.851 15.9323 15.3664 16.3798 15.9999 16.3798C16.6334 16.3798 17.1489 15.9323 17.1489 15.2309H19.2531C19.2531 16.6337 18.371 17.8505 17.1354 18.3123L17.1204 19.8064C17.1204 20.7224 17.8744 21.4448 18.8011 21.4448C19.7278 21.4448 20.4818 20.7018 20.4818 19.7198H22.5859C22.5862 21.824 20.8884 23.5518 18.8014 23.5518Z" fill="white"/>
</svg>
