<svg width="445" height="398" viewBox="0 0 445 398" fill="none" xmlns="http://www.w3.org/2000/svg">
<g clip-path="url(#clip0_243_56)">
<path d="M321.888 380.165C285.771 391.453 245.406 392.695 207.85 390.042C172.933 387.53 137.494 379.756 106.84 362.302C74.1384 343.677 47.4215 313.538 39.8143 276.033C31.0216 232.688 32.3059 186.435 40.5059 143.117C49.7901 93.8707 68.8881 46.9941 96.6637 5.27712H90.5807L108.674 37.1798C113.84 46.2948 118.441 56.2141 124.707 64.6519C130.183 72.0314 137.127 74.797 146.132 75.573C158.453 76.6312 170.859 77.1815 183.194 77.9717L256.867 82.7126L294.366 85.1255C304.062 85.7463 315.141 87.9474 324.654 85.196C334.66 82.2611 338.64 72.7087 343.086 64.2004L362.281 27.5144L356.734 28.234C393.166 75.4202 415.296 132.063 420.499 191.444C424.888 241.831 419.455 299.385 385.215 339.359C368.462 358.958 346.248 372.292 321.874 380.278C317.639 381.689 319.418 388.49 323.751 387.079C370.481 371.897 404.847 337.454 419.186 290.341C436.32 234.07 430.138 169.447 411.142 114.488C399.753 81.5914 383.037 50.7884 361.66 23.3097C360.248 21.5318 357.073 22.195 356.113 24.0293L337.568 59.4594C334.745 64.7506 332.247 71.9044 327.561 75.8411C322.565 80.0741 315.649 79.3968 309.595 79.0582C281.368 77.4778 253.141 75.4178 224.913 73.5976L183.25 70.9167L162.419 69.5057C155.545 69.0683 148.037 69.3505 141.248 67.7843C128.758 64.9059 123.155 48.4113 117.453 38.3509L96.6778 1.66496C96.359 1.14239 95.9112 0.71054 95.3773 0.41089C94.8435 0.11124 94.2415 -0.0461426 93.6292 -0.0461426C93.017 -0.0461426 92.4151 0.11124 91.8812 0.41089C91.3473 0.71054 90.8995 1.14239 90.5807 1.66496C39.3868 78.7624 18.0613 171.874 30.5982 263.56C33.7314 285.826 40.0966 305.707 53.3774 324.036C63.5512 338.02 75.9921 350.204 90.1855 360.086C119.739 380.758 155.334 390.987 190.801 395.361C211.221 397.799 231.807 398.55 252.35 397.605C276.456 396.603 300.647 394.148 323.765 386.952C328.083 385.626 326.235 378.81 321.888 380.165Z" fill="#94D53D"/>
<path d="M358.075 64.4966C356.128 71.6246 354.848 78.9178 354.25 86.2824C354.262 87.0524 354.52 87.7983 354.988 88.4105C355.455 89.0226 356.107 89.4686 356.847 89.6829C362.844 92.0651 369.378 92.7676 375.745 91.7148C376.628 91.4695 377.382 90.8914 377.848 90.102C378.314 89.3126 378.455 88.3734 378.243 87.4818C375.32 79.4362 371.363 71.8046 366.472 64.7788C364.948 62.5918 360.53 62.3378 360.022 65.6254C358.719 73.6074 359.25 81.7812 361.575 89.5277C361.726 90.0431 361.992 90.5177 362.353 90.916C362.714 91.3143 363.159 91.6262 363.657 91.8282C364.155 92.0303 364.692 92.1175 365.229 92.0832C365.765 92.0489 366.286 91.894 366.754 91.6301C369.789 89.8805 372.71 87.2701 371.962 83.3899C371.384 80.3703 368.166 77.8446 365.061 78.8606C358.54 80.9912 363.649 91.5595 369.761 86.8609C373.345 84.0389 368.349 79.1145 364.764 81.866L364.271 82.247L367.7 81.3439L369.013 82.7549L367.982 85.2524L368.476 84.7868L365.978 85.8168C365.037 84.7162 364.096 84.6268 363.156 85.5487L368.363 87.5946C366.334 81.0811 365.803 74.1931 366.811 67.4456L360.361 68.2922C364.945 74.7909 368.665 81.8582 371.426 89.3161L373.896 84.9702C368.752 85.6518 363.519 84.9302 358.752 82.8819L361.307 86.2824C361.878 79.5303 363.079 72.8462 364.892 66.3168C366.091 61.9286 359.246 60.0661 358.089 64.4402L358.075 64.4966Z" fill="#94D53D"/>
<path d="M85.7115 46.831L75.197 63.2268C74.7289 64.0359 74.5997 64.9973 74.8377 65.9012C75.0756 66.8052 75.6613 67.5784 76.4672 68.0524C83.3274 71.1011 90.9578 71.9727 98.3291 70.5499C99.2033 70.2926 99.9461 69.711 100.405 68.924C100.864 68.137 101.005 67.2043 100.799 66.3169C99.1739 60.0169 96.7252 53.9586 93.5163 48.2984C93.239 47.8379 92.8611 47.4459 92.411 47.1517C91.9609 46.8576 91.4501 46.6689 90.9168 46.5997C90.3835 46.5305 89.8415 46.5826 89.3312 46.7522C88.8209 46.9217 88.3555 47.2043 87.9697 47.5788C85.3023 50.0622 82.6489 53.2228 83.4252 57.1877C83.6886 58.8374 84.5576 60.3297 85.8624 61.3733C87.1672 62.4169 88.8143 62.9368 90.4819 62.8317C91.4177 62.8317 92.3152 62.4601 92.9769 61.7985C93.6386 61.137 94.0103 60.2398 94.0103 59.3042C94.0103 58.3687 93.6386 57.4714 92.9769 56.8099C92.3152 56.1484 91.4177 55.7767 90.4819 55.7767C88.1592 55.5352 85.8166 55.9782 83.7427 57.0513C81.6687 58.1243 79.9541 59.7805 78.81 61.8158C78.44 62.4883 78.2939 63.2612 78.3929 64.0223C78.4919 64.7834 78.8308 65.4932 79.3605 66.0488C80.253 67.0606 81.3703 67.8494 82.6227 68.3517C83.8752 68.854 85.2279 69.0559 86.5725 68.9413C91.0747 68.6168 91.117 61.5618 86.5725 61.8863C86.165 62.0405 85.7154 62.041 85.3075 61.8878C84.8997 61.7346 84.5617 61.4381 84.3566 61.0539L84.9071 65.2868C85.4453 64.3081 86.2864 63.5301 87.3042 63.0696C88.3221 62.6092 89.4618 62.491 90.5525 62.7329V55.678C90.2279 55.678 92.6978 52.729 92.9659 52.4891L87.4193 51.7695C90.3276 56.9148 92.5392 62.4235 93.9962 68.1512L96.4661 63.8053C90.9251 64.8494 85.1983 64.2105 80.0238 61.971L81.294 66.7966L91.738 50.3867C94.1938 46.5488 88.0967 43.0072 85.641 46.831H85.7115Z" fill="#94D53D"/>
<path d="M327.674 173.482C326.488 176.899 326.507 180.619 327.73 184.023C328.952 187.427 331.303 190.31 334.392 192.192C335.062 192.571 335.837 192.722 336.601 192.623C337.364 192.523 338.075 192.179 338.626 191.642C342.693 187.229 344.97 181.461 345.014 175.462C345.059 169.462 342.867 163.661 338.866 159.189C337.215 157.298 334.632 158.243 333.32 159.908C328.828 165.869 326.202 173.026 325.775 180.477C325.348 187.928 327.139 195.338 330.92 201.773C331.198 202.233 331.575 202.625 332.026 202.919C332.476 203.213 332.986 203.402 333.52 203.471C334.053 203.541 334.595 203.488 335.105 203.319C335.616 203.149 336.081 202.867 336.467 202.492C338.938 200.208 340.91 197.438 342.258 194.355C343.607 191.272 344.303 187.944 344.303 184.58C344.303 181.215 343.607 177.887 342.258 174.804C340.91 171.722 338.938 168.951 336.467 166.667C336.081 166.292 335.616 166.01 335.105 165.84C334.595 165.671 334.053 165.619 333.52 165.688C332.986 165.757 332.476 165.946 332.026 166.24C331.575 166.534 331.198 166.926 330.92 167.387C328.459 171.639 327.452 176.579 328.053 181.455C328.654 186.332 330.83 190.879 334.251 194.407C334.917 195.064 335.814 195.432 336.749 195.432C337.684 195.432 338.582 195.064 339.247 194.407C341.33 192.3 342.619 189.537 342.897 186.587C343.175 183.637 342.424 180.682 340.771 178.223C340.492 177.765 340.114 177.375 339.663 177.082C339.213 176.79 338.703 176.602 338.171 176.533C337.638 176.464 337.097 176.515 336.587 176.683C336.077 176.851 335.612 177.131 335.225 177.503C329.579 182.386 328.479 189.652 331.767 196.242C333.277 199.261 337.173 197.921 338.217 195.395C340.029 191.014 340.548 186.206 339.713 181.539C339.148 177.56 332.656 178.576 332.783 182.47L332.868 188.34C332.868 192.869 339.925 192.883 339.925 188.34L339.84 182.47L332.91 183.401C333.387 186.843 332.868 190.349 331.414 193.504L337.864 192.658C335.916 188.763 337.045 185.208 340.221 182.47L334.674 181.751C335.618 182.828 336.102 184.231 336.023 185.661C335.944 187.09 335.308 188.432 334.251 189.398H339.247C336.905 186.988 335.419 183.874 335.019 180.537C334.618 177.2 335.326 173.824 337.031 170.928L331.485 171.648C333.305 173.272 334.762 175.262 335.759 177.488C336.757 179.715 337.272 182.126 337.272 184.566C337.272 187.005 336.757 189.417 335.759 191.643C334.762 193.869 333.305 195.859 331.485 197.483L337.031 198.203C333.909 192.838 332.474 186.658 332.915 180.467C333.355 174.276 335.65 168.361 339.501 163.492L333.955 164.212C336.676 167.34 338.154 171.358 338.11 175.503C338.066 179.649 336.502 183.634 333.715 186.703L337.949 186.153C334.068 183.571 333.051 179.705 334.463 175.415C335.874 171.126 329.071 169.235 327.66 173.539L327.674 173.482Z" fill="white"/>
<path d="M116.775 173.482C115.589 176.899 115.609 180.619 116.831 184.023C118.053 187.427 120.404 190.31 123.493 192.192C124.164 192.571 124.939 192.722 125.702 192.623C126.466 192.523 127.176 192.179 127.728 191.642C131.794 187.229 134.071 181.461 134.116 175.462C134.16 169.462 131.968 163.661 127.967 159.189C126.316 157.298 123.733 158.243 122.421 159.908C117.92 165.863 115.285 173.018 114.848 180.468C114.411 187.919 116.191 195.333 119.965 201.773C120.242 202.233 120.62 202.625 121.07 202.919C121.521 203.213 122.031 203.402 122.565 203.471C123.098 203.541 123.64 203.488 124.15 203.319C124.661 203.149 125.126 202.867 125.512 202.492C127.983 200.208 129.954 197.438 131.303 194.355C132.651 191.272 133.348 187.944 133.348 184.58C133.348 181.215 132.651 177.887 131.303 174.804C129.954 171.722 127.983 168.951 125.512 166.667C125.126 166.292 124.661 166.01 124.15 165.84C123.64 165.671 123.098 165.619 122.565 165.688C122.031 165.757 121.521 165.946 121.07 166.24C120.62 166.534 120.242 166.926 119.965 167.387C117.504 171.639 116.497 176.579 117.098 181.455C117.699 186.332 119.875 190.879 123.296 194.407C123.961 195.064 124.859 195.432 125.794 195.432C126.729 195.432 127.627 195.064 128.292 194.407C130.393 192.299 131.697 189.527 131.98 186.565C132.263 183.603 131.508 180.634 129.845 178.167C129.565 177.708 129.187 177.318 128.737 177.026C128.287 176.733 127.776 176.545 127.244 176.476C126.712 176.407 126.17 176.459 125.661 176.627C125.151 176.795 124.685 177.075 124.298 177.447C118.653 182.329 117.552 189.596 120.84 196.185C122.35 199.205 126.246 197.864 127.29 195.338C129.102 190.957 129.621 186.149 128.786 181.482C128.222 177.503 121.729 178.519 121.856 182.414L121.941 188.284C121.941 192.813 128.998 192.827 128.998 188.284L128.913 182.414L121.983 183.345C122.46 186.786 121.941 190.292 120.487 193.448L126.937 192.601C124.99 188.707 126.119 185.151 129.294 182.414L123.748 181.694C124.691 182.771 125.175 184.175 125.096 185.604C125.017 187.034 124.381 188.376 123.324 189.342H128.433C126.091 186.931 124.605 183.818 124.205 180.481C123.804 177.144 124.512 173.768 126.217 170.872L120.671 171.591C122.491 173.215 123.948 175.206 124.945 177.432C125.943 179.658 126.458 182.07 126.458 184.509C126.458 186.948 125.943 189.36 124.945 191.586C123.948 193.812 122.491 195.803 120.671 197.427L126.217 198.146C123.095 192.782 121.66 186.602 122.101 180.41C122.541 174.219 124.836 168.304 128.687 163.436L123.141 164.155C125.846 167.297 127.305 171.323 127.24 175.468C127.175 179.614 125.591 183.591 122.788 186.647L127.022 186.096C123.141 183.514 122.124 179.648 123.536 175.359C124.947 171.069 118.144 169.179 116.733 173.482H116.775Z" fill="white"/>
<path d="M183.024 248.011C177.817 268.837 195.43 288.281 216.812 283.695C239.069 278.912 242.485 253.189 243.275 234.381C243.473 229.724 236.797 230.035 236.218 234.381C233.861 252.004 233.396 285.572 253.973 293.741C262.766 297.227 272.617 293.544 278.884 286.926C286.576 278.813 288.495 267.426 289.793 256.759C290.344 252.258 283.273 252.3 282.737 256.759C281.678 265.437 280.168 275.314 273.902 281.931C267.635 288.549 257.981 290.397 251.32 283.483C240.156 271.758 241.285 249.055 243.247 234.367H236.19C235.611 247.983 234.666 266.312 221.583 274.27C204.646 284.542 185.212 268.231 189.799 249.873C190.9 245.471 184.154 243.595 182.996 247.997L183.024 248.011Z" fill="white"/>
<path d="M226.565 214.627C219.099 208.602 210.969 219.114 217.292 225.915C224.349 233.435 237.672 229.724 243.317 222.444C249.654 214.274 237.672 206.923 229.994 207.699C221.187 208.63 216.812 217.703 220.214 225.562C223.615 233.421 233.494 235.1 238.886 228.186C244.277 221.273 240.749 209.307 230.587 210.746C222.26 211.932 221.47 225.435 230.418 225.59C238.392 225.731 239.013 213.554 232.182 211.127C221.145 207.205 214.963 225.886 225.732 230.148C234.779 233.718 239.45 218.86 230.418 216.983C229.668 216.805 228.881 216.866 228.168 217.157C227.454 217.448 226.849 217.954 226.438 218.606C225.385 220.032 224.807 221.752 224.784 223.524C224.761 225.296 225.295 227.03 226.311 228.483C226.722 229.134 227.327 229.641 228.041 229.932C228.754 230.222 229.541 230.283 230.291 230.105C242.118 228.229 234.892 207.388 222.98 215.756C217.617 219.523 217.334 226.62 220.792 231.756C224.688 237.4 232.083 239.94 238.759 238.966C251.461 237.09 258.899 219.283 246.775 211.311C236.529 204.552 219.96 212.115 217.334 223.784C215.683 230.994 221.413 236.624 228.47 236.229C236.487 235.778 240.551 228.215 242.584 221.428C242.808 220.525 242.677 219.57 242.217 218.761C241.757 217.953 241.004 217.351 240.114 217.082C233.621 214.472 222.345 220.454 226.861 228.243C228.456 230.994 232.267 234.55 235.724 233.887C240.184 232.998 244.192 226.832 246.084 223.177C248.116 219.128 242.033 215.558 239.987 219.622C238.433 222.85 235.983 225.563 232.93 227.439H236.486C234.934 226.761 232.379 225.957 233.551 224.278C234.426 223.022 237.079 223.488 238.152 223.911L235.682 219.565C234.779 222.528 233.537 226.62 230.658 228.271C228.555 229.499 226.833 229.682 225.182 227.721C223.53 225.76 224.292 224.08 225.69 222.077C228.611 217.759 235.301 214.852 240.424 216.263C248.046 218.352 246.592 228.215 240.424 231.206C238.71 231.986 236.834 232.344 234.954 232.25C233.073 232.157 231.242 231.615 229.613 230.67C228.027 229.836 226.725 228.549 225.873 226.973L225.365 223.685C229.42 221.71 230.361 221.616 228.188 223.403L232.168 225.026L232.295 222.204L228.315 223.826C224.998 223.149 227.595 218.295 230.121 217.872C232.944 217.406 234.482 218.832 234.186 221.512C233.72 225.83 228.541 226.959 226.579 223.149C222.048 214.514 235.047 212.016 238.745 219.777V216.221C237.097 219.227 234.326 221.458 231.039 222.43C229.793 222.792 228.497 222.954 227.2 222.909C223.671 222.74 223.827 221.71 221.329 219.692C224.829 222.514 229.797 217.562 226.325 214.697L226.565 214.627Z" fill="#94D53D"/>
<path d="M175.008 79.5802C171.654 94.2894 171.442 109.541 174.387 124.337C176.193 133.085 181.444 144.543 192.198 143.357C202.953 142.172 206.707 129.628 208.626 120.937C211.942 105.56 212.154 89.6771 209.247 74.2184C209.1 73.6998 208.837 73.2215 208.477 72.82C208.118 72.4186 207.671 72.1045 207.171 71.9017C206.672 71.699 206.133 71.6129 205.595 71.65C205.057 71.6872 204.535 71.8465 204.068 72.116C197.21 77.0358 189.577 80.7747 181.486 83.1782L184.887 89.048C186.022 87.9471 187.386 87.1096 188.881 86.5951C190.376 86.0805 191.967 85.9015 193.539 86.0708L191.041 80.0458C184.62 86.9658 180.099 95.4283 177.915 104.611C177.125 107.899 181.317 110.721 183.815 108.04L204.985 85.4641L199.918 80.4268C190.671 91.0501 184.735 104.146 182.841 118.1C182.347 121.755 187.146 124.633 189.291 120.824L204.548 93.662L198.098 90.9387L184.351 126.439C182.94 130.15 189.023 132.718 190.801 129.163L205.352 100.153L198.775 98.3747C197.869 112.39 193.505 125.964 186.073 137.883L191.62 137.163C178.55 120.231 183.335 96.7944 187.64 77.6471L180.653 76.6312C180.653 84.0672 179.976 91.7712 180.653 99.2072C180.992 103.243 182.657 107.447 186.962 108.463C198.253 111.13 203.574 88.8928 205.691 81.6544L198.761 80.7231C200.78 96.9552 197.749 113.415 190.081 127.865L194.908 126.595C194.022 126.117 193.28 125.411 192.759 124.55C192.238 123.689 191.957 122.705 191.944 121.698C191.21 117.226 184.408 119.13 185.141 123.575C185.426 125.461 186.133 127.258 187.208 128.834C188.283 130.409 189.699 131.723 191.351 132.676C192.162 133.14 193.122 133.267 194.025 133.03C194.928 132.792 195.702 132.209 196.178 131.406C204.507 115.892 207.877 98.1974 205.832 80.709C205.394 76.9558 200.102 75.6859 198.902 79.7777C198.055 82.5997 191.493 103.257 187.865 100.068C186.609 98.9673 187.682 91.2492 187.696 89.5277L187.781 76.5889C187.781 72.6804 181.74 71.7068 180.851 75.6576C175.869 97.8244 171.734 122.743 186.652 141.975C188.063 143.851 191.126 142.99 192.198 141.255C200.246 128.254 204.954 113.465 205.902 98.2054C206.128 94.7484 200.878 93.3374 199.326 96.4275L184.69 125.579L191.14 128.302L204.886 92.8012C206.298 89.0339 200.356 86.6634 198.436 90.078L183.194 117.226L189.644 119.935C191.245 107.167 196.555 95.1489 204.915 85.3653C207.836 81.9507 203.052 77.0122 199.918 80.3704L178.748 102.946L184.647 106.375C186.49 98.3692 190.381 90.9789 195.938 84.9279C196.375 84.4303 196.664 83.8211 196.775 83.1685C196.885 82.5158 196.811 81.8454 196.562 81.2321C196.313 80.6188 195.899 80.0867 195.365 79.6954C194.831 79.304 194.199 79.0687 193.539 79.0158C191.027 78.8119 188.5 79.1611 186.137 80.0387C183.774 80.9163 181.633 82.301 179.863 84.0954C179.335 84.653 179.002 85.3666 178.913 86.1294C178.824 86.8921 178.985 87.6631 179.371 88.327C179.757 88.9908 180.348 89.5119 181.055 89.8123C181.761 90.1127 182.547 90.1762 183.293 89.9934C191.992 87.4488 200.206 83.4717 207.596 78.2256L202.416 76.1233C204.422 86.9946 204.784 98.1055 203.489 109.084C202.6 116.45 201.301 131.731 193.525 135.696C183.137 140.944 180.484 119.935 179.863 114.291C178.702 103.297 179.345 92.1869 181.768 81.4004C182.742 76.9699 175.939 75.0791 174.966 79.5238L175.008 79.5802Z" fill="#94D53D"/>
<path d="M232.775 81.9507C228.117 96.5686 226.24 113.571 230.517 128.514C233.128 137.657 240.17 147.915 251.023 145.798C262.314 143.583 266.125 129.995 268.708 120.4C272.434 106.615 274.607 92.4485 268.313 79.1005C266.986 76.2785 262.667 77.1674 261.863 79.947C257.636 95.9328 252.249 111.589 245.745 126.792L252.195 129.515L261.312 85.4358C261.518 84.6159 261.424 83.7495 261.046 82.993C260.669 82.2365 260.033 81.64 259.255 81.3111C258.476 80.9822 257.605 80.9427 256.799 81.1998C255.994 81.4568 255.307 81.9934 254.862 82.7126L237.108 110.467L243.205 114.023C247.007 106.905 249.277 99.0708 249.866 91.0234C250.036 88.9492 248.102 87.7216 246.338 87.4959C244.602 87.2237 242.826 87.3882 241.17 87.9745C239.514 88.5609 238.031 89.5505 236.853 90.8541L242.4 95.087C244.642 90.495 245.292 85.2879 244.249 80.2857C243.543 76.5607 238.533 77.3226 237.446 80.2857C230.545 99.1931 224.405 125.903 245.914 138.024C247.735 139.04 250.699 138.235 251.094 135.921C253.994 119.126 255.781 102.157 256.443 85.1254C256.57 81.9507 252.562 80.6384 250.417 82.6279C237.968 94.1981 236.529 111.638 235.964 127.653C235.866 130.56 240.001 132.507 241.991 130.15C246.644 124.723 250.058 118.346 251.993 111.464C253.929 104.582 254.339 97.3607 253.197 90.3038C253.029 89.7114 252.709 89.173 252.27 88.7418C251.83 88.3105 251.286 88.0013 250.69 87.8446C250.095 87.6879 249.469 87.6891 248.874 87.8482C248.279 88.0073 247.735 88.3187 247.298 88.7517C241.137 96.2451 236.95 105.161 235.118 114.686H241.92C240.703 109.78 240.689 104.652 241.878 99.7394C243.068 94.8264 245.425 90.273 248.751 86.4659L242.753 83.9684C242.979 91.8368 242.587 99.7108 241.582 107.518C241.059 111.582 247.396 112.118 248.511 108.449C250.256 102.495 253.374 97.0342 257.615 92.5049L251.715 90.9528C254.832 98.5598 256.139 106.787 255.531 114.985C254.924 123.183 252.419 131.128 248.215 138.193C246.211 141.579 251.038 145.488 253.762 142.426C260.045 135.547 264.549 127.236 266.881 118.217C269.213 109.198 269.303 99.746 267.141 90.6847C266.167 86.5505 260.592 87.8627 260.211 91.616C258.585 107.644 253.438 123.114 245.138 136.923H251.221C241.878 121.092 250.826 102.382 258.461 87.764L254.481 89.3866L258.941 91.1504L260.818 84.3494L254.82 83.2488C250.374 82.4445 248.469 89.2455 252.943 90.0498L258.927 91.1363C259.829 91.3851 260.793 91.2655 261.607 90.8038C262.421 90.342 263.018 89.5759 263.267 88.6741C263.516 87.7722 263.396 86.8084 262.934 85.9947C262.473 85.181 261.706 84.5841 260.804 84.3353L256.344 82.5715C255.595 82.366 254.798 82.4136 254.079 82.707C253.359 83.0004 252.756 83.5232 252.364 84.1941C243.459 101.295 234.285 122.235 245.124 140.521C245.443 141.044 245.891 141.476 246.424 141.775C246.958 142.075 247.56 142.232 248.173 142.232C248.785 142.232 249.387 142.075 249.921 141.775C250.454 141.476 250.902 141.044 251.221 140.521C260.095 125.631 265.57 108.965 267.254 91.7148L260.324 92.646C262.193 100.503 262.117 108.697 260.103 116.519C258.088 124.34 254.197 131.552 248.765 137.53L254.312 141.763C259.01 133.895 261.835 125.053 262.569 115.92C263.303 106.787 261.927 97.6069 258.546 89.0903C257.629 86.7904 254.622 85.3935 252.647 87.5382C247.591 92.9631 243.858 99.482 241.737 106.587L248.667 107.518C249.663 99.71 250.045 91.836 249.81 83.9684C249.725 81.1464 245.872 79.044 243.783 81.4709C239.613 86.1807 236.648 91.8312 235.141 97.938C233.634 104.045 233.631 110.426 235.132 116.534C235.908 119.808 241.271 119.991 241.934 116.534C243.439 108.187 246.999 100.346 252.294 93.7184L246.394 92.1663C247.299 98.0136 246.938 103.987 245.336 109.683C243.734 115.379 240.928 120.665 237.108 125.184L243.134 127.681C243.642 113.571 244.545 97.8949 255.526 87.637L249.499 85.1395C248.865 101.537 247.149 117.874 244.362 134.045L249.542 131.942C231.123 121.586 238.561 97.7679 244.263 82.1623H237.46C238.137 85.3239 237.74 88.6208 236.331 91.5313C234.708 95.0306 238.829 98.7415 241.878 95.7643L246.38 94.4662L242.852 90.9387C242.359 97.7448 240.435 104.37 237.206 110.382C236.973 110.783 236.82 111.225 236.758 111.684C236.695 112.143 236.724 112.61 236.842 113.058C236.96 113.506 237.165 113.927 237.445 114.296C237.726 114.664 238.076 114.974 238.477 115.208C238.877 115.441 239.319 115.594 239.779 115.656C240.238 115.719 240.705 115.69 241.153 115.572C241.601 115.454 242.022 115.249 242.391 114.969C242.76 114.689 243.07 114.338 243.303 113.938L260.945 86.353L254.495 83.6298L245.378 127.709C244.63 131.364 250.163 134.313 251.828 130.433C258.612 114.665 264.234 98.4239 268.651 81.8378L262.201 82.6844C266.901 92.6601 265.56 103.553 263.076 113.938C261.284 121.416 258.984 135.964 250.374 138.518C239.634 141.692 236.472 124.676 235.767 117.55C234.716 106.147 236.018 94.6503 239.592 83.7709C241.003 79.4391 234.158 77.5766 232.789 81.8942L232.775 81.9507Z" fill="#94D53D"/>
<path d="M288.989 85.8733C284.279 100.591 282.834 116.158 284.755 131.491C286.166 142.13 290.104 155.308 303.512 153.643C315.536 152.148 320.674 139.802 323.2 129.473C326.756 114.547 326.533 98.97 322.551 84.1519C321.506 80.1446 315.889 81.2311 315.621 85.0831C314.269 104.398 309.754 123.36 302.256 141.213L309.185 142.144C308.205 125.791 310.976 109.43 317.287 94.311L310.498 92.4626L299.376 125.847L306.179 127.723L316.454 87.637C316.657 86.8803 316.604 86.0779 316.303 85.3543C316.003 84.6308 315.472 84.0266 314.793 83.6357C314.114 83.2448 313.325 83.089 312.548 83.1926C311.772 83.2961 311.051 83.6532 310.498 84.2083C301.47 92.2696 295.316 103.053 292.969 114.926C292.207 118.693 297.344 121.289 299.419 117.649C304.537 108.721 308.223 99.0467 310.343 88.9775C310.488 88.3828 310.478 87.7607 310.313 87.171C310.149 86.5814 309.835 86.0439 309.403 85.6104C308.971 85.1768 308.434 84.8616 307.845 84.6951C307.256 84.5287 306.633 84.5165 306.038 84.6598C302.67 85.6204 299.639 87.5059 297.288 90.1024C294.938 92.6988 293.364 95.902 292.743 99.3483C292.023 103.13 297.076 105.698 299.193 102.072C300.75 99.5687 301.575 96.68 301.575 93.7325C301.575 90.7851 300.75 87.8964 299.193 85.3936C298.831 84.8106 298.308 84.3444 297.688 84.0508C297.067 83.7571 296.376 83.6484 295.695 83.7378C295.014 83.8271 294.374 84.1106 293.851 84.5545C293.327 84.9983 292.943 85.5835 292.743 86.2401C286.091 105.727 287.326 127.042 296.187 145.629C297.429 148.296 302.114 147.703 302.637 144.782C304.803 132.933 305.24 120.833 303.935 108.858C303.526 105.091 298.177 103.835 297.005 107.927C293.433 120.28 294.337 133.497 299.56 145.248C300.971 148.62 306.095 146.659 306.137 143.47C306.132 137.959 307.444 132.527 309.962 127.625L303.582 124.873L297.711 143.555C297.547 144.227 297.582 144.932 297.812 145.585C298.041 146.238 298.456 146.809 299.005 147.231C299.553 147.653 300.213 147.906 300.903 147.959C301.593 148.013 302.283 147.865 302.891 147.534C310.942 142.55 317.079 135 320.313 126.102C323.547 117.204 323.689 107.476 320.716 98.4876C319.305 94.2546 312.446 96.0466 313.913 100.364C316.483 107.85 316.441 115.986 313.794 123.445C311.146 130.904 306.049 137.246 299.334 141.438L304.514 145.417L310.385 126.736C311.571 122.968 305.756 120.429 303.935 124.013C300.853 130.022 299.233 136.674 299.207 143.428L305.784 141.65C301.459 131.567 300.81 120.288 303.949 109.776L297.019 108.844C298.317 120.184 297.965 131.652 295.975 142.892L302.425 142.045C294.505 125.106 293.522 105.742 299.687 88.0886L293.237 88.9352C294.143 90.3635 294.624 92.02 294.624 93.7114C294.624 95.4028 294.143 97.0593 293.237 98.4876L299.687 101.211C299.99 98.9513 300.94 96.8274 302.422 95.0951C303.904 93.3627 305.856 92.0958 308.042 91.4467L303.695 87.1009C301.73 96.5729 298.286 105.677 293.491 114.079L299.941 116.802C301.988 106.115 307.516 96.4053 315.663 89.1891L309.764 85.7604L299.489 125.861C298.36 130.291 304.867 132.027 306.292 127.738L317.414 94.3534C318.825 89.9511 312.29 88.399 310.611 92.4768C304.093 108.194 301.236 125.188 302.256 142.172C302.496 146.405 307.689 146.701 309.185 143.103C316.87 124.644 321.471 105.048 322.805 85.0972L315.875 86.0285C318.618 96.2534 319.455 106.895 318.345 117.423C317.343 126.552 314.972 142.821 304.711 146.208C291.431 150.624 291.205 127.865 291.064 120.161C290.903 109.152 292.538 98.1904 295.905 87.7076C297.316 83.3617 290.457 81.5133 289.102 85.831L288.989 85.8733Z" fill="#94D53D"/>
<path d="M401.206 250.791C414.037 246.2 428.115 246.522 440.724 251.694C444.958 253.373 446.778 246.558 442.601 244.893C428.755 239.325 413.352 239.004 399.286 243.99C395.052 245.485 396.859 252.3 401.163 250.791H401.206Z" fill="#94D53D"/>
<path d="M400.274 277.12C413.835 277.353 426.831 282.584 436.772 291.808C440.103 294.884 445.113 289.904 441.768 286.813C430.477 276.311 415.708 270.343 400.288 270.051C395.744 269.938 395.744 276.993 400.288 277.106L400.274 277.12Z" fill="#94D53D"/>
<path d="M395.363 300.387C405.445 303.997 413.806 311.258 418.791 320.734C420.936 324.741 427.033 321.171 424.888 317.178C418.951 306.131 409.085 297.713 397.24 293.586C393.006 292.062 391.114 298.877 395.363 300.387Z" fill="#94D53D"/>
<path d="M4.23404 237.809C11.7994 234.658 19.9172 233.046 28.1128 233.068C36.3085 233.09 44.4176 234.745 51.966 237.936C56.1013 239.7 59.7003 233.619 55.5227 231.841C47.1612 228.166 38.1493 226.2 29.0168 226.057C19.8843 225.914 10.8153 227.597 2.34283 231.008C-1.80655 232.688 -2.00975e-05 239.474 4.21993 237.809H4.23404Z" fill="#94D53D"/>
<path d="M21.9747 262.756C31.3302 257.126 42.1099 254.309 53.0245 254.643C57.5691 254.756 57.5691 247.701 53.0245 247.588C40.8369 247.246 28.8054 250.394 18.3476 256.66C14.4522 258.974 17.9947 265.126 21.9042 262.756H21.9747Z" fill="#94D53D"/>
<path d="M25.3056 292.076C36.495 283.161 49.5557 276.891 63.5109 273.733C67.9285 272.718 66.0655 265.902 61.6338 266.932C46.5199 270.433 32.396 277.312 20.3235 287.053C16.781 289.875 21.7348 294.856 25.3197 292.048L25.3056 292.076Z" fill="#94D53D"/>
</g>
<defs>
<clipPath id="clip0_243_56">
<rect width="445" height="398" fill="white"/>
</clipPath>
</defs>
</svg>
