<svg width="367" height="350" viewBox="0 0 367 350" fill="none" xmlns="http://www.w3.org/2000/svg">
<path d="M332.43 72.7104C330.069 51.9368 311.802 35.6362 289.439 35.6362H177.397L91.0016 2.45149C86.7835 0.844459 82.6084 0 78.6157 0C63.5787 0 53.4467 11.2134 53.4467 27.9541V43.4564C43.626 50.166 36.9876 60.6577 35.6245 72.7053C30.4083 80.2543 27.3386 89.2414 27.3386 98.9501V302.173C27.3386 328.581 49.7921 349.995 77.478 349.995H290.577C318.268 349.995 340.716 328.581 340.716 302.173V98.9501C340.716 89.2465 337.641 80.2543 332.43 72.7104ZM59.7148 39.9557V27.9541C59.7148 14.6015 67.1313 5.97774 78.6157 5.97774C81.8141 5.97774 85.1897 6.65843 88.6725 7.98909L160.611 35.6362L176.158 41.6139L180.896 43.4359V47.5916V51.1333V307.664H177.376L91.007 274.464C73.759 267.832 59.7202 247.426 59.7202 228.981V54.3627V53.943V46.7318V39.9557H59.7148ZM210.026 51.1486V79.026L222.218 69.2456L234.406 79.026V51.1486V47.6172H289.461C297.038 47.6172 303.848 50.3297 309.21 54.6288C315.993 60.064 320.388 68.0736 320.388 77.1375V278.154C320.388 294.429 306.542 307.68 289.461 307.68H187.186V51.1486V47.6172H210.052L210.026 51.1486ZM162.451 126.577L123.673 111.658V105.583L162.451 120.507V126.577ZM162.451 149.746L123.673 134.827V128.747L162.451 143.645V149.746ZM162.451 173.114L84.8838 143.302V137.227L162.451 167.044V173.114ZM162.451 196.273L84.8838 166.461V160.36L162.451 190.172V196.273ZM162.451 219.641L84.8838 189.824V183.754L162.451 213.571V219.641ZM91.5222 124.243L93.5346 118.337L105.218 122.82L107.31 130.323L110.707 131.623L114.115 132.923L103.243 95.8742L99.5022 94.4361L95.7832 93.0184L84.8892 121.674L88.2379 122.917L91.5222 124.243ZM99.4002 101.76V101.739H99.4109L99.4002 101.76L103.489 116.51L95.327 113.342L99.4002 101.76ZM260.042 223.167C258.013 223.167 255.99 223.167 253.961 223.167C253.961 214.876 253.961 206.611 253.961 198.325C256.043 198.325 258.142 198.325 260.224 198.325C260.095 206.575 260.465 215.204 260.042 223.167ZM276.205 192.685C280.772 199.538 284.787 206.959 289.23 213.899C287.481 214.81 285.763 215.7 284.137 216.724C279.34 210.019 275.438 202.506 270.785 195.664C272.347 194.425 274.542 193.796 276.205 192.685ZM237.803 192.685C239.627 193.489 241.173 194.62 243.089 195.357C239.064 202.655 234.572 209.559 230.37 216.744C228.401 216.079 226.903 214.922 225.132 214.047C228.782 206.381 233.665 199.891 237.803 192.685ZM306.698 197.388C299.217 193.35 291.522 189.568 284.271 185.274C285.168 183.355 286.096 181.467 287.223 179.788C294.591 184.01 302.169 188.048 309.467 192.373C308.694 194.19 307.541 195.628 306.698 197.388ZM204.359 192.209C212.033 188.191 219.46 183.969 226.93 179.788C227.789 181.676 228.889 183.268 229.919 184.972C222.954 189.568 214.963 193.156 207.675 197.393C206.516 195.71 205.276 194.133 204.359 192.209ZM258.732 190.781C269.369 190.054 277.354 183.447 280.649 175.228C284.529 165.57 280.853 154.73 273.914 148.819C272.481 147.611 269.862 146.726 269.299 145.068C268.526 142.754 269.143 139.581 269.143 136.889C269.143 133.993 269.143 131.377 269.143 128.388C262.435 126.29 251.723 126.29 245.08 128.388C245.08 131.127 245.08 133.967 245.08 136.889C245.08 139.627 245.767 143.2 244.897 145.365C244.543 146.276 243.255 146.859 242.434 147.422C236.547 151.322 231.819 158.518 231.867 167.065C231.953 180.765 243.786 191.789 258.732 190.781ZM244.586 153.251C246.228 151.946 248.471 151.189 249.851 149.157C251.697 146.419 251.316 142.596 251.316 137.841C254.594 136.905 259.344 137.161 262.843 137.672C262.612 142.888 262.73 147.734 265.183 150.39C266.385 151.706 268.671 152.525 270.292 153.871C274.172 157.11 276.388 162.448 276.039 167.858C275.481 176.707 268.386 184.015 258.727 184.809C252.153 185.366 246.636 182.546 243.395 179.322C240.599 176.548 238.152 172.116 238.13 167.07C238.109 160.575 241.033 156.046 244.586 153.251Z" fill="white"/>
</svg>
