<svg width="340" height="340" viewBox="0 0 340 340" fill="none" xmlns="http://www.w3.org/2000/svg">
<g clip-path="url(#clip0_244_954)">
<path d="M336.453 47.1709C334.189 45.3909 331.27 44.7495 328.495 45.3909L290.185 54.5921V36.098C290.185 21.9494 281.167 13.1277 266.639 13.1277C240.593 13.1277 185.935 44.8281 169.575 57.7857C153.751 44.7103 101.292 10.6278 74.2903 10.6278C58.9899 10.6278 49.8279 20.1562 49.8279 36.098V55.2989C40.9147 53.9246 22.6431 49.7755 11.5441 47.0662C8.75621 46.3725 5.81129 47.0138 3.54698 48.7939C1.33503 50.5477 0 53.2571 0 56.1365V299.085C0 301.768 1.17797 304.334 3.18051 306.14C5.22231 307.894 7.95781 308.692 10.6017 308.3C11.4524 308.195 94.4728 289.531 135.427 311.271C136.984 312.082 139.458 314.111 141.879 316.035C148.816 321.65 158.318 329.333 169.954 329.385C169.993 329.385 170.046 329.385 170.072 329.385C181.708 329.385 191.563 321.336 198.762 315.446C201.236 313.404 203.853 311.284 205.424 310.446C246.286 288.811 328.456 308.169 329.294 308.313C331.977 308.705 334.699 307.933 336.741 306.153C338.809 304.399 340 301.808 340 299.098V54.4612C340.013 51.6079 338.691 48.9117 336.453 47.1709ZM68.4529 36.098C68.4529 29.5538 70.2591 29.2789 74.2772 29.2789C95.7162 29.2789 142.966 58.8982 156.578 69.1596L169.797 78.688L182.611 71.3585C196.72 61.6861 245.121 31.7919 266.639 31.7919C271.534 31.7919 271.534 32.7866 271.534 36.098V221.876C244.297 222.387 196.746 229.612 182.755 237.412C168.763 245.187 170.098 246.077 170.098 246.077C170.098 246.077 169.13 244.86 156.591 237.111C142.089 227.295 95.4414 222.387 68.466 221.876V36.098H68.4529ZM321.349 268.864C298.981 259.048 233.905 252.15 196.72 271.848C193.5 273.563 190.32 276.141 186.969 278.877C181.668 283.222 175.059 288.615 170.085 288.615H170.072C164.967 288.588 158.685 283.523 153.607 279.426C150.387 276.822 147.337 274.335 144.183 272.686C106.933 252.922 43.4276 262.712 18.6642 271.325V67.9162C28.6246 70.2067 42.3282 73.217 49.8279 74.1594V240.462H60.482C85.3108 240.462 131.461 242.988 161.263 260.121L164.091 261.744V268.681L170.072 265.16L175.229 268.131V262.163L178.148 260.461C207.911 243.04 254.427 240.462 279.518 240.462H290.185V73.7798L321.349 66.2932V268.864Z" fill="white"/>
<path d="M96.4492 136.133C96.4492 144.301 96.4492 158.541 96.4492 164.248C96.4492 166.433 99.525 168.122 103.321 169.417V129.21C99.525 130.793 96.4492 133.018 96.4492 136.133Z" fill="white"/>
<path d="M163.96 201.367C163.96 195.097 163.96 101.658 163.96 95.9387C163.96 91.0305 157.599 95.8209 157.599 95.8209L117.325 125.898C117.325 125.898 113.569 126.304 109.224 127.338V170.962C113.569 171.904 117.325 172.323 117.325 172.323L156.722 201.563C156.722 201.576 163.96 207.623 163.96 201.367Z" fill="white"/>
<path d="M180.988 181.668C182.664 183.396 184.889 184.247 187.087 184.247C189.234 184.247 191.381 183.435 193.017 181.812C203.815 171.289 209.05 159.85 208.631 147.782C207.951 128.922 193.226 116.226 192.585 115.689C189.011 112.666 183.606 113.111 180.569 116.684C177.533 120.257 177.965 125.637 181.577 128.699C181.669 128.791 191.171 137.154 191.577 148.384C191.839 155.465 188.331 162.585 181.106 169.614C177.755 172.925 177.69 178.318 180.988 181.668Z" fill="white"/>
<path d="M226.457 147.9C226.902 160.256 220.973 172.546 208.827 184.404C205.463 187.689 205.398 193.082 208.683 196.432C210.345 198.173 212.557 199.011 214.795 199.011C216.916 199.011 219.062 198.199 220.737 196.615C236.431 181.236 244.113 164.666 243.525 147.298C242.53 120.087 221.182 101.698 220.292 100.912C216.706 97.8888 211.301 98.3338 208.264 101.907C205.228 105.48 205.686 110.886 209.259 113.922C209.429 114.079 225.79 128.45 226.457 147.9Z" fill="white"/>
</g>
<defs>
<clipPath id="clip0_244_954">
<rect width="340" height="340" fill="white"/>
</clipPath>
</defs>
</svg>
