<svg width="344" height="344" viewBox="0 0 344 344" fill="none" xmlns="http://www.w3.org/2000/svg">
<g clip-path="url(#clip0_244_818)">
<path d="M144.48 0C142.655 0 140.905 0.724855 139.615 2.01511C138.325 3.30536 137.6 5.05531 137.6 6.88V20.64C137.6 22.4647 138.325 24.2146 139.615 25.5049C140.905 26.7951 142.655 27.52 144.48 27.52H154.8V45.7348C80.372 54.3004 22.3599 117.679 22.3599 194.36C22.3599 276.862 89.4983 344 172 344C254.501 344 321.64 276.862 321.64 194.36C321.664 166.122 313.645 138.461 298.523 114.614L313.102 102.811L319.596 110.833C320.165 111.536 320.866 112.12 321.66 112.551C322.454 112.983 323.325 113.254 324.223 113.349C325.122 113.443 326.03 113.36 326.897 113.104C327.763 112.848 328.571 112.423 329.273 111.855L339.972 103.193C341.388 102.044 342.29 100.38 342.48 98.5658C342.669 96.752 342.131 94.937 340.983 93.5198L306.349 50.74C305.781 50.0375 305.08 49.4538 304.286 49.0222C303.492 48.5907 302.621 48.3197 301.722 48.2248C300.824 48.13 299.915 48.213 299.049 48.4693C298.182 48.7255 297.375 49.15 296.672 49.7183L285.974 58.3802C284.558 59.5293 283.656 61.1937 283.466 63.0075C283.276 64.8214 283.815 66.6364 284.963 68.0535L291.461 76.0756L276.944 87.8198C253.769 64.985 223.197 49.6564 189.2 45.7417V27.52H199.52C201.345 27.52 203.094 26.7951 204.385 25.5049C205.675 24.2146 206.4 22.4647 206.4 20.64V6.88C206.4 5.05531 205.675 3.30536 204.385 2.01511C203.094 0.724855 201.345 0 199.52 0L144.48 0ZM172 68.8C241.488 68.8 297.56 124.872 297.56 194.36C297.56 263.848 241.488 319.92 172 319.92C102.512 319.92 46.4399 263.848 46.4399 194.36C46.4399 124.872 102.512 68.8 172 68.8ZM172.007 94.4039L172 194.36L251.925 254.378C263.074 239.531 269.867 221.872 271.542 203.381C273.218 184.89 269.71 166.298 261.412 149.688C253.114 133.079 240.355 119.11 224.563 109.346C208.772 99.5818 190.573 94.409 172.007 94.4074V94.4039Z" fill="white"/>
</g>
<defs>
<clipPath id="clip0_244_818">
<rect width="344" height="344" fill="white"/>
</clipPath>
</defs>
</svg>
