<svg width="40" height="36" viewBox="0 0 40 36" fill="none" xmlns="http://www.w3.org/2000/svg">
<path d="M16.6175 2.96306L9.01995 8.65256H2.08153C0.936687 8.65256 0 9.58925 0 10.7341V25.2354C0 26.3806 0.936687 27.3169 2.08153 27.3169H9.01995L16.6175 33.0064C18.0052 34.0472 19.948 33.0758 19.948 31.3412V4.62828C19.948 2.89367 17.9705 1.92229 16.6175 2.96306Z" fill="#94D53D"/>
<path d="M26.8171 6.36289C25.8804 5.4262 24.3193 5.4262 23.3829 6.36289C22.4462 7.29957 22.4462 8.86072 23.3829 9.7974C27.8929 14.3074 27.8929 21.6278 23.3829 26.1377C22.4462 27.0744 22.4462 28.6356 23.3829 29.5719C23.8683 30.0576 24.4927 30.2657 25.0825 30.2657C25.6723 30.2657 26.3318 30.0232 26.7824 29.5372C33.2351 23.1886 33.2351 12.7809 26.8171 6.36289Z" fill="#94D53D"/>
<path d="M29.5231 0.916225C28.5867 1.85291 28.5867 3.41406 29.5231 4.35074C33.1657 7.99341 35.1782 12.8156 35.1782 17.9847C35.1782 23.1539 33.1657 27.9761 29.5231 31.6187C28.5867 32.5554 28.5867 34.1166 29.5231 35.0533C30.0087 35.5386 30.6332 35.7818 31.223 35.7818C31.8474 35.7818 32.4719 35.5389 32.9229 35.0879C37.4675 30.5433 39.9997 24.4722 39.9997 18.0194C39.9997 11.5667 37.5019 5.53027 32.9229 0.950917C32.0209 -0.0204621 30.4944 -0.0204619 29.5231 0.916225Z" fill="#94D53D"/>
</svg>
