<svg width="42" height="42" viewBox="0 0 42 42" fill="none" xmlns="http://www.w3.org/2000/svg">
<g clip-path="url(#clip0_244_870)">
<path d="M41.9064 16.124C41.6817 15.4326 41.0842 14.9288 40.365 14.8244L28.1673 13.0522L22.7122 1.99828C22.3905 1.34653 21.7267 0.933838 20.9999 0.933838C20.2731 0.933838 19.6092 1.34653 19.2877 1.99828L13.833 13.0521L1.63491 14.8243C0.915689 14.9288 0.318038 15.4326 0.0934897 16.1238C-0.131059 16.8152 0.0561922 17.574 0.576702 18.0813L9.40322 26.6841L7.31876 38.8339C7.19592 39.5503 7.49035 40.2743 8.07833 40.7015C8.41095 40.9432 8.80493 41.0662 9.20082 41.0662C9.50467 41.0662 9.8098 40.9937 10.0892 40.8468L20.9998 35.111L31.9103 40.8468C32.1913 40.9946 32.4991 41.065 32.804 41.0662C33.8574 41.0646 34.7108 40.2104 34.7108 39.1567C34.7108 39.0101 34.6942 38.8671 34.6629 38.73L32.5965 26.6842L41.423 18.0813C41.9437 17.574 42.1309 16.8152 41.9064 16.124Z" fill="#94D53D"/>
</g>
<defs>
<clipPath id="clip0_244_870">
<rect width="42" height="42" fill="white"/>
</clipPath>
</defs>
</svg>
