<svg width="42" height="42" viewBox="0 0 42 42" fill="none" xmlns="http://www.w3.org/2000/svg">
<g clip-path="url(#clip0_244_889)">
<path d="M41.9064 17.2186C41.6817 16.4775 41.0842 15.9373 40.365 15.8254L28.1673 13.9255L22.7122 2.07499C22.3905 1.37627 21.7267 0.933838 20.9999 0.933838C20.2731 0.933838 19.6092 1.37627 19.2877 2.07499L13.833 13.9254L1.63491 15.8253C0.915689 15.9373 0.318038 16.4775 0.0934897 17.2185C-0.131059 17.9596 0.0561922 18.7731 0.576702 19.317L9.40322 28.5398L7.31876 41.5651C7.19592 42.3332 7.49035 43.1093 8.07833 43.5672C8.41095 43.8264 8.80493 43.9582 9.20082 43.9582C9.50467 43.9582 9.8098 43.8806 10.0892 43.7231L20.9998 37.574L31.9103 43.7231C32.1913 43.8815 32.4991 43.957 32.804 43.9582C33.8574 43.9566 34.7108 43.0408 34.7108 41.9112C34.7108 41.754 34.6942 41.6007 34.6629 41.4538L32.5965 28.5399L41.423 19.317C41.9437 18.7731 42.1309 17.9596 41.9064 17.2186Z" fill="#F53E94"/>
</g>
<defs>
<clipPath id="clip0_244_889">
<rect width="42" height="42" fill="white"/>
</clipPath>
</defs>
</svg>
