<svg width="383" height="352" viewBox="0 0 383 352" fill="none" xmlns="http://www.w3.org/2000/svg">
<path d="M250.53 113.674L335.077 56.9579L342.378 66.5173L364.113 23.5618L312.767 27.7419L321.325 38.9514L250.171 86.6689L153.523 25.0359L0 96.3934V120.802L151.68 50.6442L250.53 113.674Z" fill="white"/>
<path d="M78.8503 103.84L0 140.36V328.438H78.8503V103.84ZM54.9128 306.438H23.9375V153.912L54.9128 139.569V306.438V306.438Z" fill="#94D53D"/>
<path d="M101.387 92.6091V328.438H180.237V92.6091L148.867 71.2693L101.387 92.6091ZM156.3 306.438H125.324V106.348L146.317 96.91L156.3 103.708V306.438Z" fill="#94D53D"/>
<path d="M202.763 105.303V328.438H281.613V115.071L250.219 136.235L202.763 105.303ZM257.676 158.499V306.438H226.7V147.884L236.371 154.187L250.458 163.372L257.676 158.499Z" fill="#94D53D"/>
<path d="M304.149 328.438H383V47.696L304.149 103.84V328.438ZM328.087 114.631L359.062 92.5653V306.438H328.087V114.631Z" fill="#94D53D"/>
</svg>
